<svg xmlns="http://www.w3.org/2000/svg" width="69.6" height="12.56" viewBox="0 0 69.6 12.56">
  <path id="Tracé_2" data-name="Tracé 2" d="M5.86.28c3.52,0,5.02-1.4,5.02-3.7,0-1.74-.8-3.14-4.52-3.8C4-7.64,3.66-8.14,3.66-8.84c0-.76.6-1.2,1.88-1.2,1.44,0,1.92.62,2.2,1.84l2.86-.56c-.34-2.06-1.66-3.52-4.92-3.52C2.4-12.28.82-10.94.82-8.68c0,1.98,1.02,3.28,4.34,3.8,2.28.38,2.82.82,2.82,1.66,0,.76-.66,1.2-2,1.2A2.512,2.512,0,0,1,3.2-4.12L.46-3.54C.72-1.46,2.02.26,5.86.28ZM19.78,0h3.36V-.22L18.26-5.88l4.76-5.9V-12H19.74L16.16-6.82h-.8V-12H12.48V0h2.88V-4.5h.84Zm7.18,0V-12H24.08V0ZM31.9-12H29.02V0h8.02V-2.58H31.9Zm9.46,0H38.48V0H46.5V-2.58H41.36ZM47.92,0h9.06V-2.5H50.82V-4.94H56.5V-7.18H50.82V-9.5H57V-12H47.92Zm15.7-9.62c2.54,0,3.56.94,3.56,3.48,0,2.52-.96,3.78-3.46,3.78H61.74V-9.62ZM58.86,0h5.08c3.84,0,6.12-2.34,6.12-6.14C70.06-9.9,68.2-12,63.98-12H58.86Z" transform="translate(-0.46 12.28)" fill="#080808"/>
</svg>
