<?xml version="1.0" encoding="utf-8"?>
<!-- Generator: Adobe Illustrator 27.6.1, SVG Export Plug-In . SVG Version: 6.00 Build 0)  -->
<svg version="1.1" id="Layer_1" xmlns="http://www.w3.org/2000/svg" xmlns:xlink="http://www.w3.org/1999/xlink" x="0px" y="0px"
	 viewBox="0 0 124 32" style="enable-background:new 0 0 124 32;" xml:space="preserve">
<style type="text/css">
	.st0{fill:#161616;}
	.st1{fill:#F9F9F9;}
</style>
<rect class="st0" width="124" height="32"/>
<path class="st1" d="M16.7,31.7H6.9c-4.5,0-6.9-3.4-6.9-8.5V8.8C0,3.6,1.1,0,7.6,0h2.5c4.6,0,6.6,3.6,6.6,8.8v2.9H9.2V7.1
	c0-0.4-0.3-0.8-0.7-0.8H8.4C8,6.3,7.6,6.7,7.6,7.1v17.4c0,0.5,0.4,0.8,0.8,0.8h8.2L16.7,31.7z M59.2,0.3v31.4h-7.5V17.5L50,31.7
	h-5.1L43,17.5v14.2h-7.5V0.3h10l1.9,14.2l1.8-14.2C49.2,0.3,59.2,0.3,59.2,0.3z M78.2,0.3h7.6v24.9H91v6.5H78.2V0.3z M123.7,0.3
	l-4,15.2l4.1,16.2h-7.9l-1.4-8.1l-1.7,8.1h-6.8l4.1-15.2l-4-16.2h7.9l1.3,7.9l1.6-7.9C116.9,0.3,123.7,0.3,123.7,0.3z M25.1,7.2
	v17.6c0,0.5,0.4,0.9,0.9,0.9c0.5,0,0.9-0.4,0.9-0.9V7.2c0-0.5-0.4-0.9-0.9-0.9C25.5,6.3,25.1,6.7,25.1,7.2z M34.5,25.3
	c0,4.5-2.2,6.7-6.7,6.7h-3.6c-4.5,0-6.7-2.2-6.7-6.7V6.8c0-4.5,2.2-6.7,6.7-6.7h3.6c4.5,0,6.7,2.2,6.7,6.7V25.3z M68.1,6.4v7.5h0.8
	c0.4,0,0.8-0.4,0.8-0.9V7.2c0-0.5-0.4-0.9-0.8-0.9h-0.8V6.4z M68.1,19.5v12.2h-7.6V0.3h9.9c4.5,0,6.7,2.2,6.7,6.7v5.7
	c0,4.5-2.2,6.7-6.7,6.7h-2.3V19.5z M91.9,0.2h13.5v6.5h-5.8v5.8h5.6V19h-5.6v6.2h5.9v6.5H91.9V0.2z"/>
</svg>
