<?xml version="1.0" encoding="utf-8"?>
<!-- Generator: Adobe Illustrator 27.6.1, SVG Export Plug-In . SVG Version: 6.00 Build 0)  -->
<svg version="1.1" id="Layer_1" xmlns="http://www.w3.org/2000/svg" xmlns:xlink="http://www.w3.org/1999/xlink" x="0px" y="0px"
	 viewBox="0 0 172 22" style="enable-background:new 0 0 172 22;" xml:space="preserve">
<style type="text/css">
	.st0{fill:#161616;}
	.st1{fill:#F9F9F9;}
</style>
<rect class="st0" width="172" height="22"/>
<g>
	<path class="st1" d="M34.5,0.1l-5.3,9.1l-5.3-9.1h-4.3l7.8,12.5v9.3h3.5v-9.3l7.7-12.5C38.6,0.1,34.5,0.1,34.5,0.1z"/>
	<path class="st1" d="M14.4,9.2H3.5V0.1H0v21.8h3.5v-9.4h10.9v9.4h3.5V0.1h-3.5V9.2z"/>
	<path class="st1" d="M50.4,0.1H40.3v21.8h3.5V13h6.6c3.8,0,6-2.5,6-5.5V5.7C56.4,2.6,54,0.1,50.4,0.1z M52.9,7
		c0,1.4-0.9,2.8-2.8,2.8h-6.2V3.5h6.2c1.8,0,2.8,1.3,2.8,2.6V7z"/>
	<path class="st1" d="M62.9,12.5h10.5V9.2H62.9V3.4H74V0.1H59.4v21.8h14.8v-3.3H62.9V12.5z"/>
	<path class="st1" d="M172,0.1h-16.3v3.1h6.4v18.6h3.5V3.3h6.4L172,0.1L172,0.1z"/>
	<path class="st1" d="M92.4,10.7c1.3-0.7,2.1-2,2.1-3.3V5.5c0-2.7-2-5.3-6-5.3H78.2V22h11.4c4.1,0,5.6-3,5.6-5.4V15
		C95.2,13.2,94.3,11.6,92.4,10.7z M88.4,3.4c1.8,0,2.6,1.2,2.6,2.4v1c0,1.2-0.8,2.5-2.6,2.5h-6.8V3.4H88.4z M91.6,16.2
		c0,1.3-1.1,2.4-2.6,2.4h-7.4v-6H89c1.7,0,2.6,1.3,2.6,2.6V16.2z"/>
	<path class="st1" d="M147,9.1h-3.6c-2.1,0-3.3-1.2-3.3-2.7V5.9c0-1.4,0.9-2.7,3.3-2.7h2.6c2.2,0,3.4,1.3,3.4,2.8h3.5
		c0-3.5-2.5-6-6.4-6H143c-4,0-6.4,2.5-6.4,5.7v1.1c0,2.9,2.6,5.7,6.3,5.7h3.5c2.4,0,3.6,1.4,3.6,2.9v0.4c0,1.5-1.2,2.9-3.4,2.9h-3
		c-1.9,0-3.4-1.2-3.4-3h-3.6c0,3,2.1,6.3,6.7,6.3h3.5c4,0,6.7-2.6,6.7-6.2v-0.6C153.5,11.6,150.4,9.1,147,9.1z"/>
	<path class="st1" d="M102.1,12.5h10.5V9.2h-10.5V3.4h11.1V0.1H98.5v21.8h14.8v-3.3H102L102.1,12.5L102.1,12.5z"/>
	<path class="st1" d="M123.4,0.1l-7.8,21.8h3.8l1.7-5.2h8.5l1.7,5.2h4l-7.7-21.8C127.6,0.1,123.4,0.1,123.4,0.1z M122.2,13.5
		l3.2-9.4l3.2,9.4H122.2z"/>
</g>
</svg>
