<?xml version="1.0" encoding="utf-8"?>
<!-- Generator: Adobe Illustrator 27.6.1, SVG Export Plug-In . SVG Version: 6.00 Build 0)  -->
<svg version="1.1" id="Layer_1" xmlns="http://www.w3.org/2000/svg" xmlns:xlink="http://www.w3.org/1999/xlink" x="0px" y="0px"
	 viewBox="0 0 172 34" style="enable-background:new 0 0 172 34;" xml:space="preserve">
<style type="text/css">
	.st0{fill-rule:evenodd;clip-rule:evenodd;fill:#161616;}
	.st1{fill-rule:evenodd;clip-rule:evenodd;fill:#F9F9F9;}
	.st2{fill:#F9F9F9;}
</style>
<rect y="0" class="st0" width="172" height="34"/>
<path class="st1" d="M172-0.1H65.5v34H172V-0.1z M72.6,6.1h5l9.8,14.4h0.1V6.1h4.8v21.5H87l-9.7-14.4h-0.1v14.4h-4.8V6.1H72.6z
	 M114.2,6.1H96.8v21.5h17.7v-4h-12.6v-5.3h11.3v-3.7h-11.3V10h12.4V6.1H114.2z M140.8,27.6h-5l-4-14.7h-0.1l-3.9,14.7h-5.3
	l-6.1-21.5h5.2l3.7,14.7h0.1l4.1-14.7h4.8l4,14.8h0.1l3.9-14.8h5L140.8,27.6z M157.4,24.5c-2.8,0-5.2-1.1-5.2-4h-4.9
	c-0.1,5.3,4.7,7.7,9.9,7.7c6.3,0,9.7-3,9.7-6.9c0-4.7-4.8-5.8-6.7-6.2c-0.1,0-0.1,0-0.2,0c-0.2,0-0.3-0.1-0.5-0.1
	c-5.4-1.3-6.4-1.5-6.4-3.1c0-1.8,1.9-2.4,3.5-2.4c2.5,0,4.4,0.7,4.6,3.3h4.9c0-5-4.5-6.9-9.3-6.9c-4.2,0-8.7,2.1-8.7,6.5
	c0,4,3.5,5.3,7,6.1c0.5,0.1,1,0.2,1.5,0.4c2.9,0.7,5.4,1.2,5.4,3.2C161.9,24,159.2,24.5,157.4,24.5z"/>
<path class="st2" d="M7.2,5.9C2.8,5.9,0,8.4,0,12.3c0,3.2,1.9,5.1,5.8,6l6.5,1.6c1.1,0.3,2.2,0.7,2.2,2c0,0.6-0.3,1.5-2.2,1.5H2.2
	c-1.2,0-1.8,0.6-1.8,1.8v2.3C0.4,28,0.6,28,0.8,28H12c4.9,0,8-2.3,8-6.2c0-3.4-1.8-5.5-5.8-6.4l-6.5-1.5c-1.3-0.3-2.2-0.8-2.2-2
	c0-0.6,0.3-1.5,2.2-1.5h9.8c1.2,0,1.8-0.6,1.8-1.8V6.3c0-0.4-0.2-0.5-0.4-0.5L7.2,5.9L7.2,5.9z"/>
<path class="st2" d="M37.5,5.9c-0.8,0-1.1,0.2-1.6,0.7c0,0-6.9,7.8-8.3,9.3c0.3,0.5,7.5,11.4,7.5,11.4c0.4,0.6,0.6,0.7,0.9,0.7h4.6
	c0.4,0,0.4-0.1,0.4-0.2s-0.1-0.2-0.3-0.5v-0.1l-7.2-11.1l7.1-8l7.9,12.1v7.5c0,0.1,0,0.2,0.3,0.2h3.5c1.1,0,1.6-0.5,1.6-1.7v-5.9
	l8.9-13.9l0,0c0.1-0.2,0.2-0.6-0.3-0.6h-4.1c-0.5,0-0.6,0.1-0.9,0.6c0,0-5.6,8.7-5.7,8.8l-0.6,0.9l-6.1-9.5
	c-0.4-0.7-1.4-0.8-2.2-0.8L37.5,5.9L37.5,5.9z"/>
<path class="st2" d="M23.7,5.9c-1.1,0-1.6,0.5-1.6,1.7v20.2c0,0.1,0,0.2,0.3,0.2h3.3c1.1,0,1.6-0.5,1.6-1.7V6.1c0-0.2,0-0.2-0.3-0.2
	H23.7z"/>
</svg>
