<?xml version="1.0" encoding="utf-8"?>
<!-- Generator: Adobe Illustrator 27.6.1, SVG Export Plug-In . SVG Version: 6.00 Build 0)  -->
<svg version="1.1" id="Layer_1" xmlns="http://www.w3.org/2000/svg" xmlns:xlink="http://www.w3.org/1999/xlink" x="0px" y="0px"
	 viewBox="0 0 162 32" style="enable-background:new 0 0 162 32;" xml:space="preserve">
<style type="text/css">
	.st0{fill:#161616;}
	.st1{fill:#F9F9F9;}
</style>
<rect class="st0" width="162" height="32"/>
<path class="st1" d="M15.2,0.8L9.1,31.7H7l-6.1-31H0.1V0h7.8v0.8H5.8l4.3,21.9l4.3-21.9h-2.5V0h4.8v0.8C16.7,0.8,15.2,0.8,15.2,0.8z
	"/>
<path class="st1" d="M16.5,21.3h4.8L18.9,9L16.5,21.3z M12.3,31h1.4l6.1-31h2.1L28,31h0.7v0.8h-7.6V31h2.1l-1.8-9h-5l-1.8,9h2.5v0.8
	h-4.8V31L12.3,31z"/>
<path class="st1" d="M43.9,0.8v31.1h-1.5L31.9,2.3V31H34v0.8h-4.1V31H31V0.8h-2V0h7.1l6.8,18.8v-18h-2.1V0h4.7v0.8H43.9z"/>
<path class="st1" d="M47.2,31.7v-0.8h1.4V0.8h-1.4V0h7.7v0.8h-1.5V31h1.5v0.8L47.2,31.7L47.2,31.7z"/>
<path class="st1" d="M61.2,31.7V31h1.5V0.7h-0.1c-2.1,0-4.1,2.1-4.5,11.7h-0.7V0H73v12.4h-0.9c-0.4-9.6-2.6-11.7-4.5-11.7h-0.1V31
	H69v0.8L61.2,31.7L61.2,31.7z"/>
<path class="st1" d="M86.2,0.8V0h4.4v0.8h-1.2L85.4,17v13.9h1.5v0.8h-7.8V31h1.5V17.1L75.9,0.8h-1V0h8v0.8h-2.2l4.2,14.9l3.7-14.9
	C88.6,0.8,86.2,0.8,86.2,0.8z"/>
<path class="st1" d="M104.9,31.7V31h1.3V0.8h-1.3V0h13.8v9.5H118c-0.4-6.7-2.4-8.7-5.9-8.7H111V15h0.4c2.7,0,3.5-1.1,3.7-5.5h0.7v12
	h-0.7c-0.3-4.8-1.1-5.8-3.5-5.8H111V31h1.9v0.8L104.9,31.7L104.9,31.7z"/>
<path class="st1" d="M121.7,21.3h4.8L124.1,9L121.7,21.3z M117.5,31h1.4L125,0h2.1l6.1,31h0.8v0.8h-7.7V31h2.1l-1.8-9h-5l-1.8,9h2.5
	v0.8h-4.8L117.5,31L117.5,31z"/>
<path class="st1" d="M134.9,31.7V31h1.3V0.8h-1.3V0h7.5v0.8h-1.4V31h1.3v0.8L134.9,31.7L134.9,31.7z"/>
<path class="st1" d="M150.9,0.8v13.6h0.7c2.4,0,4.1,0.2,4.1-5.7V7.2c0-5.7-1.7-6.4-3.8-6.4L150.9,0.8L150.9,0.8z M155.4,27.7v-7.8
	c0-4.1-1.2-4.9-3.7-4.9h-0.8v16h1.9v0.8h-8.1V31h1.3V0.8h-1.3V0h7.1c5.2,0,8.5,2.4,8.5,7.8c0,4.8-2.9,6.4-6.4,6.9l0,0
	c3.7,0.6,6.3,2.1,6.3,7.7v7.3c0,1,0.3,1.2,0.8,1.2c0.4,0,0.7-0.1,0.9-0.2v0.8c-0.3,0.2-1.1,0.5-2.2,0.5
	C157.1,32,155.4,31,155.4,27.7z"/>
</svg>
