<?xml version="1.0" encoding="utf-8"?>
<!-- Generator: Adobe Illustrator 27.6.1, SVG Export Plug-In . SVG Version: 6.00 Build 0)  -->
<svg version="1.1" id="Layer_1" xmlns="http://www.w3.org/2000/svg" xmlns:xlink="http://www.w3.org/1999/xlink" x="0px" y="0px"
	 viewBox="0 0 140 36" style="enable-background:new 0 0 140 36;" xml:space="preserve">
<style type="text/css">
	.st0{fill:#161616;}
	.st1{fill:#F9F9F9;}
</style>
<rect class="st0" width="140" height="36"/>
<path class="st1" d="M40.8,0.2C32.7,0.2,26,9.3,26,17.3c0,8.4,4.9,18.6,14.8,18.5c9.9,0,15.1-11,15.1-18.5C55.9,9,49,0.1,40.8,0.2z
	 M40.8,0.5c6.8,0,8.7,7.6,8.7,16.8c0,12.2-2.2,18.2-8.7,18.2c-6.4,0-8.5-4.9-8.5-18.2C32.3,9,34,0.5,40.8,0.5z"/>
<path class="st1" d="M58.6,17.5c0-9,7.2-17.1,13.3-17.5c2.2-0.2,5,0.9,6.7,1.6c1.2,0.5,3.7-0.2,4.1-1.6h0.2v12.3h-0.2
	c0-0.5-2.3-12-10.8-12c-6.3,0-6.9,11.1-6.9,17.2s0.2,18,7.5,18c3.6,0,6.2-1.6,6.9-4.7v-9.6h-3v-0.4H88v0.4h-2.8v14H85
	c0,0-0.5-2-2.8-2c-3,0-5.8,2.6-9.3,2.6C63.6,35.7,58.7,26.6,58.6,17.5z"/>
<path class="st1" d="M3.6,1.4H0V1h12.6v0.4H9.4l9,24.6c2.8-8.7,5-15.2,7.9-24.6h-3.1V1h6.7v0.4h-3l-11,34.3L3.6,1.4z"/>
<path class="st1" d="M89.7,27.3v-26h-3.4V0.9h12.6v0.4h-3.4l0.1,28.4c0.8,3.3,2.1,5.7,6.7,5.8c4.6,0,7.7-2.7,8.9-6.5V1.3h-3.9V1
	h32.1l0.1,12.4H139c-0.6-8-3.7-11.1-9.1-12c-1.9-0.3-3.8-0.1-6.3-0.1v15.9c2.1,0.2,4.4,0,6-1.3c1.4-1.2,1.8-4,1.9-5.1h0.3v13.8h-0.3
	c-0.1,0-0.2-3.5-1.9-5.1c-1.7-1.7-3.8-2.1-6-1.7v17c3,0,5.4,0.3,7.5-0.3c6.3-1.7,8.5-7.1,8.5-12.5h0.4v13.2h-25.1v-0.4h2.8V1.3h-6.1
	V29c-0.7,2.6-3.2,7-9.8,7C95.7,36,89.7,33.2,89.7,27.3z"/>
</svg>
